<svg width="148" height="252" viewBox="0 0 148 252" fill="none" xmlns="http://www.w3.org/2000/svg">
<path d="M82.3978 49.8212L78.5702 54.1632C76.4721 56.5432 76.4773 60.3961 78.5817 62.769C80.6861 65.1419 84.093 65.1359 86.1909 62.7559L100.858 46.1179C102.956 43.7379 106.362 43.7319 108.467 46.1048C110.571 48.4777 110.577 52.3306 108.479 54.7106L93.8118 71.3487C91.7137 73.7287 91.7189 77.5816 93.8233 79.9543C95.9277 82.3271 99.3346 82.3212 101.433 79.9412L109.589 70.6887C111.687 68.3087 115.094 68.3028 117.198 70.6756C119.303 73.0485 119.308 76.9015 117.21 79.2814L102.646 95.8031C100.548 98.1831 100.553 102.036 102.657 104.409C104.762 106.782 108.168 106.776 110.266 104.396L170.051 36.5754C172.15 34.1954 172.144 30.3424 170.04 27.9696C167.935 25.5967 167.93 21.744 170.028 19.3637L184.592 2.84206C186.691 0.462067 186.685 -3.39089 184.581 -5.76375C182.477 -8.13662 179.07 -8.13068 176.972 -5.75069L168.815 3.50183C166.717 5.88182 163.311 5.88776 161.206 3.5149C159.102 1.14203 159.096 -2.71069 161.194 -5.09091L175.861 -21.729C177.959 -24.109 177.954 -27.9619 175.85 -30.3348C173.745 -32.7077 170.338 -32.7017 168.24 -30.3217L153.574 -13.6837C151.475 -11.3037 148.069 -11.2977 145.964 -13.6706C143.86 -16.0435 143.855 -19.8964 145.953 -22.2764L149.78 -26.6184C151.878 -28.9984 151.873 -32.8513 149.769 -35.2242C147.664 -37.5971 144.258 -37.5911 142.159 -35.2111L82.3743 32.6094C80.2762 34.9893 80.2815 38.8423 82.3859 41.2152C84.4907 43.5883 84.496 47.4412 82.3978 49.8212Z" fill="url(#paint0_linear_918_290)" fill-opacity="0.9"/>
<path d="M30.8881 271.972L1.57018 305.23C-0.527933 307.61 -0.522684 311.463 1.58173 313.836C3.68614 316.209 7.09296 316.203 9.19107 313.823L20.8721 300.572C22.9702 298.192 26.3771 298.186 28.4815 300.559C30.5859 302.931 30.5911 306.784 28.493 309.164L12.0628 327.803C9.96472 330.183 9.96997 334.036 12.0744 336.409C14.1788 338.782 17.5856 338.776 19.6837 336.396L23.0849 332.537C25.183 330.157 28.5898 330.151 30.6942 332.524C32.7986 334.897 36.2055 334.891 38.3036 332.511L45.5337 324.309C47.6318 321.929 51.0384 321.923 53.143 324.296L53.3274 324.504C55.33 326.762 55.335 330.429 53.3383 332.693C51.2402 335.073 51.2455 338.926 53.3499 341.299C55.4543 343.672 58.8611 343.666 60.9592 341.286L136.783 255.271C138.83 252.949 138.825 249.189 136.772 246.874L136.587 246.666C134.534 244.351 134.529 240.591 136.576 238.269C138.623 235.946 138.618 232.186 136.564 229.871L136.38 229.663C134.327 227.348 131.002 227.354 128.955 229.676L121.541 238.086C119.494 240.409 116.169 240.415 114.116 238.099L113.932 237.891C111.878 235.576 108.554 235.582 106.506 237.904L103.013 241.867C100.915 244.247 97.5085 244.253 95.4038 241.88C93.2994 239.507 93.2942 235.654 95.3923 233.274L111.914 214.531C113.962 212.209 113.957 208.449 111.903 206.134L111.719 205.926C109.665 203.611 106.341 203.616 104.293 205.939L92.5203 219.294C90.4222 221.674 87.0156 221.68 84.911 219.307C82.8066 216.934 82.8013 213.081 84.8994 210.701L114.31 177.338C116.357 175.016 116.352 171.256 114.298 168.941L114.114 168.733C112.06 166.417 108.736 166.423 106.689 168.746L30.865 254.76C28.7669 257.14 28.7721 260.993 30.8765 263.366C32.9809 265.739 32.9862 269.591 30.8881 271.972Z" fill="#E0E0E0" fill-opacity="0.9"/>
<defs>
<linearGradient id="paint0_linear_918_290" x1="76.9686" y1="34.676" x2="186.211" y2="34.5311" gradientUnits="userSpaceOnUse">
<stop stop-color="white"/>
<stop offset="0.9992" stop-color="#BABABA"/>
</linearGradient>
</defs>
</svg>
